{
 "accessors": [
  {
   "componentType": 5126,
   "type": "VEC3",
   "count": 672,
   "max": [
    12,
    4,
    17
   ],
   "min": [
    -8,
    -1.0409498114625029e-15,
    -13
   ],
   "bufferView": 0
  },
  {
   "componentType": 5126,
   "type": "VEC3",
   "count": 672,
   "bufferView": 1
  },
  {
   "componentType": 5123,
   "type": "SCALAR",
   "count": 1752,
   "bufferView": 2
  },
  {
   "componentType": 5126,
   "type": "VEC3",
   "count": 4420,
   "max": [
    42,
    4,
    -31
   ],
   "min": [
    -37,
    1.8982025288627816e-15,
    -43.47999954223633
   ],
   "bufferView": 3
  },
  {
   "componentType": 5126,
   "type": "VEC3",
   "count": 4420,
   "bufferView": 4
  },
  {
   "componentType": 5123,
   "type": "SCALAR",
   "count": 12672,
   "bufferView": 5
  }
 ],
 "asset": {
  "version": "2.0",
  "generator": "clara.io"
 },
 "bufferViews": [
  {
   "buffer": 0,
   "byteOffset": 0,
   "byteLength": 8064,
   "target": 34962,
   "byteStride": 12
  },
  {
   "buffer": 0,
   "byteOffset": 8064,
   "byteLength": 8064,
   "target": 34962,
   "byteStride": 12
  },
  {
   "buffer": 0,
   "byteOffset": 16128,
   "byteLength": 3504,
   "target": 34963
  },
  {
   "buffer": 0,
   "byteOffset": 19632,
   "byteLength": 53040,
   "target": 34962,
   "byteStride": 12
  },
  {
   "buffer": 0,
   "byteOffset": 72672,
   "byteLength": 53040,
   "target": 34962,
   "byteStride": 12
  },
  {
   "buffer": 0,
   "byteOffset": 125712,
   "byteLength": 25344,
   "target": 34963
  }
 ],
 "buffers": [
  {
   "byteLength": 151056,
   "uri": "data:application/octet-stream;base64,"
  }
 ],
 "materials": [
  {
   "name": "Default-fiocco",
   "pbrMetallicRoughness": {
    "baseColorFactor": [
     0.8156862745098039,
     0.4823529411764706,
     0.8980392156862745,
     1
    ]
   }
  },
  {
   "name": "Default-scritta",
   "pbrMetallicRoughness": {
    "baseColorFactor": [
     0.788235294117647,
     0,
     0.7098039215686275,
     1
    ]
   }
  }
 ],
 "meshes": [
  {
   "primitives": [
    {
     "indices": 2,
     "material": 0,
     "mode": 4,
     "attributes": {
      "POSITION": 0,
      "NORMAL": 1
     }
    }
   ]
  },
  {
   "primitives": [
    {
     "indices": 5,
     "material": 1,
     "mode": 4,
     "attributes": {
      "POSITION": 3,
      "NORMAL": 4
     }
    }
   ]
  }
 ],
 "nodes": [
  {
   "name": "fiocco",
   "translation": [
    0,
    0,
    5.117599964141846
   ],
   "scale": [
    0.40959998965263367,
    0.40959998965263367,
    0.40959998965263367
   ],
   "children": [
    2
   ]
  },
  {
   "name": "scritta",
   "translation": [
    0,
    0,
    5.117599964141846
   ],
   "scale": [
    0.40959998965263367,
    0.40959998965263367,
    0.40959998965263367
   ],
   "children": [
    3
   ]
  },
  {
   "name": "fiocco",
   "mesh": 0
  },
  {
   "name": "scritta",
   "mesh": 1
  }
 ],
 "scene": 0,
 "scenes": [
  {
   "nodes": [
    0,
    1
   ]
  }
 ]
}
